<?xml version="1.0" encoding="utf-8"?>
<!-- Generator: Adobe Illustrator 19.2.1, SVG Export Plug-In . SVG Version: 6.00 Build 0)  -->
<svg version="1.1" id="レイヤー_1" xmlns="http://www.w3.org/2000/svg" xmlns:xlink="http://www.w3.org/1999/xlink" x="0px"
	 y="0px" viewBox="0 0 500 208.5" style="enable-background:new 0 0 500 208.5;" xml:space="preserve">
<style type="text/css">
	.st0{fill:#E6B422;}
</style>
<g>
	<g>
		<path class="st0" d="M0.6,159.1h14V49.5h-14v-2.8H51v2.8H37v109.6h52.9V130H93v31.8H0.6V159.1z"/>
	</g>
	<g>
		<path class="st0" d="M122.6,159h14V49.4h-14v-2.8h93.2v28.6h-3.1V49.4H159v53.4h37.1V86.4h3.1v34.7h-3.1v-15.7H159V159h55.2v-26
			h3.1v28.8h-94.7C122.6,161.8,122.6,159,122.6,159z"/>
	</g>
	<g>
		<path class="st0" d="M246.9,159.3h10.6l46.6-112.9h2.8L356,159.3h9.2v2.8H318v-2.8h14l-12.9-30.1h-46l-12.5,30.1h15.7v2.8h-29.5
			L246.9,159.3L246.9,159.3z M318,126.4l-22.1-52.3l-21.7,52.3C274.2,126.4,318,126.4,318,126.4z"/>
	</g>
	<g>
		<path class="st0" d="M398.1,159h14V49.3h-14v-2.8h63.5c22.8,0,37.8,15.8,37.8,35.1c0,18.4-15.1,33.8-37.8,33.8h-27.1V159h14v2.8
			h-50.4V159z M461.6,112.7c4.8,0,9.2-0.6,13.2-2V51.5c-4-1.4-8.5-2.1-13.2-2.1h-27.1v63.3H461.6z"/>
	</g>
	<rect x="411.9" y="48.3" class="st0" width="22.6" height="110.7"/>
</g>
</svg>
